<svg version="1.1" xmlns="http://www.w3.org/2000/svg" viewBox="-3794.9915057806625 -1700.825 10694.691505780662 2911.65"><desc>Created with Snap</desc><defs></defs><g><rect x="-3794.9915057806625" y="-1700.825" width="10694.691505780662" height="2911.65" fill="#37393a" style=""></rect><g transform="matrix(39.0577,0,0,39.0577,-3775.8812,-2197.8695)"><g><path d="M91.743,30.36c-0.563-0.567-1.326-0.884-2.125-0.884h-2.624l-0.006-5.883c0-0.931-0.432-1.809-1.168-2.375   c-0.74-0.569-1.691-0.763-2.599-0.531l-33.243,8.677l-33.244-8.677c-0.913-0.231-1.864-0.038-2.598,0.531   c-0.737,0.569-1.168,1.45-1.168,2.381l0.006,5.877h-2.551c-1.658,0-3.003,1.344-3.006,3.003l-0.041,43.92   c0,0.799,0.317,1.562,0.881,2.128c0.563,0.563,1.327,0.881,2.125,0.881h79.195c1.658,0,3.003-1.345,3.006-3.003l0.041-43.92   C92.624,31.687,92.308,30.924,91.743,30.36z M81.015,66.375l-27.989,5.962V35.488l27.954-8.002L81.015,66.375z M46.931,35.488   v36.846l-27.913-5.959l-0.029-38.886L46.931,35.488z" fill="#ffffff" style=""></path><g><path d="M56.392,40.771c-0.669,0-1.276-0.448-1.453-1.124c-0.211-0.804,0.271-1.623,1.075-1.832l20.782-5.424    c0.811-0.215,1.624,0.272,1.832,1.074c0.211,0.804-0.27,1.623-1.074,1.831l-20.783,5.425    C56.645,40.757,56.516,40.771,56.392,40.771z" fill="#ffffff" style=""></path></g><g><path d="M56.392,49.035c-0.669,0-1.276-0.446-1.453-1.121c-0.211-0.805,0.271-1.627,1.075-1.835l20.782-5.425    c0.811-0.211,1.624,0.273,1.832,1.074c0.211,0.805-0.27,1.624-1.074,1.835l-20.783,5.425    C56.645,49.021,56.516,49.035,56.392,49.035z" fill="#ffffff" style=""></path></g><g><path d="M56.392,57.302c-0.669,0-1.276-0.446-1.453-1.122c-0.211-0.804,0.271-1.626,1.075-1.837l20.782-5.425    c0.811-0.212,1.624,0.275,1.832,1.074c0.211,0.805-0.27,1.626-1.074,1.838l-20.783,5.425    C56.645,57.284,56.516,57.302,56.392,57.302z" fill="#ffffff" style=""></path></g><g><path d="M56.392,65.567c-0.669,0-1.276-0.446-1.453-1.124c-0.211-0.802,0.271-1.623,1.075-1.835l20.782-5.425    c0.811-0.211,1.624,0.276,1.832,1.075c0.211,0.804-0.27,1.626-1.074,1.834l-20.783,5.425    C56.645,65.553,56.516,65.567,56.392,65.567z" fill="#ffffff" style=""></path></g><g><path d="M43.605,40.771c-0.124,0-0.253-0.015-0.379-0.05l-20.783-5.425c-0.804-0.208-1.286-1.027-1.074-1.831    c0.208-0.802,1.021-1.289,1.832-1.074l20.782,5.424c0.805,0.209,1.286,1.028,1.075,1.832    C44.882,40.323,44.274,40.771,43.605,40.771z" fill="#ffffff" style=""></path></g><g><path d="M43.605,49.035c-0.124,0-0.253-0.015-0.379-0.047l-20.783-5.425c-0.804-0.211-1.286-1.03-1.074-1.835    c0.208-0.801,1.021-1.285,1.832-1.074l20.782,5.425c0.805,0.208,1.286,1.03,1.075,1.835    C44.882,48.589,44.274,49.035,43.605,49.035z" fill="#ffffff" style=""></path></g><g><path d="M43.605,57.302c-0.124,0-0.253-0.018-0.379-0.047L22.443,51.83c-0.804-0.212-1.286-1.033-1.074-1.838    c0.208-0.799,1.021-1.286,1.832-1.074l20.782,5.425c0.805,0.211,1.286,1.033,1.075,1.837    C44.882,56.855,44.274,57.302,43.605,57.302z" fill="#ffffff" style=""></path></g><g><path d="M43.605,65.567c-0.124,0-0.253-0.015-0.379-0.05l-20.783-5.425c-0.804-0.208-1.286-1.03-1.074-1.834    c0.208-0.799,1.021-1.286,1.832-1.075l20.782,5.425c0.805,0.212,1.286,1.033,1.075,1.835    C44.882,65.121,44.274,65.567,43.605,65.567z" fill="#ffffff" style=""></path></g></g><desc>Created with Snap</desc><defs></defs></g><g><g transform="matrix(0.5,0,0,-0.5,0,0)"><path d="M809 1189L550 1189L550 232L733 232Q802 232 847 234Q892 236 965 248Q1038 260 1089 281Q1141 303 1196 346Q1252 390 1289 452Q1357 566 1357 719Q1357 807 1332 881Q1308 955 1267 1005Q1227 1056 1172 1094Q1118 1132 1062 1153Q1006 1174 947 1182Q897 1189 809 1189ZM298 1421L802 1421Q936 1421 1049 1400Q1162 1379 1244 1343Q1326 1307 1390 1256Q1454 1205 1495 1147Q1536 1089 1562 1021Q1589 953 1599 887Q1610 822 1610 752Q1610 660 1595 574Q1580 489 1542 400Q1504 312 1444 241Q1385 171 1289 114Q1194 58 1071 31Q1008 17 931 9Q854 2 804 1Q755 0 666 0L298 0L298 1421ZM1935 1150L1935 1421L2211 1421L2211 1150L1935 1150ZM1950 0L1950 988L2196 988L2196 0L1950 0ZM2973 1007Q3081 1007 3162 987Q3244 968 3294 936Q3344 904 3375 856Q3406 808 3417 758Q3429 709 3429 648L3429 0L3245 0L3217 65Q3084 -20 2914 -20Q2729 -20 2614 67Q2499 154 2499 273Q2499 347 2536 402Q2574 457 2635 490Q2696 523 2788 544Q2880 565 2972 573Q3065 581 3182 582L3182 616Q3182 654 3175 679Q3169 704 3147 732Q3125 760 3073 774Q3022 789 2942 789Q2830 789 2645 745L2605 734L2554 931L2589 943Q2774 1007 2973 1007ZM3182 255L3182 396L3158 396Q2956 396 2857 372Q2759 348 2759 291Q2759 255 2819 223Q2879 191 2966 191Q3089 191 3182 255ZM3953 988L3982 935Q4138 1007 4315 1007Q4428 1007 4521 964L4556 948L4478 743L4439 758Q4369 785 4287 785Q4156 785 4035 738L4035 0L3789 0L3789 988L3953 988ZM5070 -8L4606 988L4888 988L5213 229L5509 988L5768 988L5126 -531L4826 -531L5070 -8ZM7115 1209L6882 1209L6882 815Q7099 820 7185 835Q7393 873 7407 1008Q7408 1019 7408 1030Q7408 1062 7397 1089Q7386 1117 7357 1146Q7329 1175 7267 1192Q7205 1209 7115 1209ZM7131 655Q7123 655 6882 644L6882 232L7106 232Q7146 232 7174 232Q7203 233 7253 237Q7303 241 7339 248Q7375 256 7418 271Q7461 286 7487 307Q7514 328 7532 360Q7551 393 7551 434Q7551 537 7437 596Q7324 655 7131 655ZM6630 0L6630 1421L7172 1421Q7263 1421 7338 1407Q7414 1393 7466 1370Q7518 1348 7558 1316Q7599 1285 7622 1252Q7646 1220 7661 1183Q7676 1147 7681 1117Q7686 1088 7686 1059Q7686 991 7649 921Q7612 851 7556 803Q7668 757 7735 659Q7803 562 7803 446Q7803 413 7796 378Q7790 344 7771 299Q7752 254 7721 213Q7691 173 7639 133Q7587 93 7519 64Q7451 36 7351 18Q7252 0 7133 0L6630 0ZM8843 264L8843 988L9089 988L9089 0L8906 0L8877 67Q8676 -20 8490 -20Q8393 -20 8322 5Q8251 31 8210 70Q8170 110 8146 169Q8122 228 8115 282Q8108 336 8108 404L8108 988L8354 988L8354 406Q8354 380 8356 360Q8359 340 8371 309Q8383 279 8405 259Q8427 239 8471 224Q8515 209 8575 209Q8695 209 8843 264ZM9399 478Q9399 732 9549 870Q9700 1008 9952 1008Q10069 1008 10185 974L10185 1511L10431 1511L10431 0L10249 0L10229 46Q10084 -20 9919 -20Q9841 -20 9769 -5Q9697 11 9628 48Q9560 85 9510 140Q9460 196 9429 283Q9399 370 9399 478ZM9982 197Q10086 197 10185 232L10185 767Q10079 797 9980 797Q9935 797 9893 790Q9851 784 9803 764Q9756 745 9721 714Q9687 683 9664 628Q9641 573 9641 502Q9641 430 9663 374Q9686 318 9721 285Q9756 253 9803 232Q9851 211 9894 204Q9937 197 9982 197ZM10751 478Q10751 732 10901 870Q11052 1008 11304 1008Q11421 1008 11537 974L11537 1511L11783 1511L11783 0L11601 0L11581 46Q11436 -20 11271 -20Q11193 -20 11121 -5Q11049 11 10980 48Q10912 85 10862 140Q10812 196 10781 283Q10751 370 10751 478ZM11334 197Q11438 197 11537 232L11537 767Q11431 797 11332 797Q11287 797 11245 790Q11203 784 11155 764Q11108 745 11073 714Q11039 683 11016 628Q10993 573 10993 502Q10993 430 11015 374Q11038 318 11073 285Q11108 253 11155 232Q11203 211 11246 204Q11289 197 11334 197ZM12487 -8L12023 988L12305 988L12630 229L12926 988L13185 988L12543 -531L12243 -531L12487 -8Z" fill="#ffffff" style=""></path></g></g></g></svg>